<svg width="52" height="55" viewBox="0 0 52 55" fill="none" xmlns="http://www.w3.org/2000/svg">
<rect width="52" height="55" rx="6.5273" fill="white"/>
<path d="M26.3381 42.9235V37.0489H41.1469C41.3373 39.3879 41.1333 41.5908 40.535 43.6578C39.9367 45.7248 38.9984 47.5334 37.7201 49.0836C36.4419 50.6339 34.8372 51.8577 32.9062 52.7552C30.9752 53.6255 28.7587 54.0607 26.2565 54.0607C23.9448 54.0607 21.8098 53.6935 19.8516 52.9592C17.9206 52.2249 16.2344 51.1914 14.793 49.8587C13.3787 48.4989 12.2772 46.8807 11.4885 45.0041C10.6998 43.1003 10.3055 41.0061 10.3055 38.7215C10.3055 36.437 10.7134 34.37 11.5293 32.5206C12.3452 30.6712 13.4875 29.0938 14.9562 27.7883C16.4248 26.4557 18.1518 25.4494 20.1372 24.7694C22.1226 24.0623 24.2712 23.7087 26.5829 23.7087C28.6771 23.7087 30.5401 24.0215 32.1719 24.647C33.8309 25.2454 35.286 26.0749 36.537 27.1356C37.7881 28.1691 38.876 29.3521 39.8007 30.6848L32.5799 34.1524C32.0087 33.1189 31.2472 32.2486 30.2953 31.5415C29.3434 30.8344 28.1059 30.4808 26.5829 30.4808C25.1415 30.4808 23.8088 30.7936 22.5849 31.4191C21.3611 32.0447 20.382 32.9694 19.6477 34.1932C18.9405 35.4171 18.587 36.9265 18.587 38.7215C18.587 40.4893 18.9269 42.026 19.6069 43.3314C20.2868 44.6097 21.2251 45.5888 22.4218 46.2687C23.6184 46.9487 25.0055 47.2886 26.5829 47.2886C27.5348 47.2886 28.3779 47.1934 29.1122 47.003C29.8466 46.7855 30.4857 46.4863 31.0296 46.1055C31.5736 45.6976 32.0359 45.2216 32.4167 44.6777C32.8246 44.1338 33.151 43.549 33.3958 42.9235H26.3381Z" fill="black"/>
</svg>
